<mxfile host="app.diagrams.net" modified="2022-05-08T01:46:09.617Z" agent="5.0 (Windows NT 10.0; Win64; x64) AppleWebKit/537.36 (KHTML, like Gecko) Chrome/101.0.4951.54 Safari/537.36" etag="MrExrA3YzAPbdg_0EZSJ" version="18.0.1" type="github">
  <diagram name="Page-1" id="b5b7bab2-c9e2-2cf4-8b2a-24fd1a2a6d21">
    <mxGraphModel dx="1422" dy="801" grid="1" gridSize="10" guides="1" tooltips="1" connect="1" arrows="1" fold="1" page="1" pageScale="1" pageWidth="3300" pageHeight="4681" background="none" math="0" shadow="0">
      <root>
        <mxCell id="0" />
        <mxCell id="1" parent="0" />
        <mxCell id="CAgy-6EI0tow3uJbMpaY-1" value="系统管理员" style="shape=umlActor;verticalLabelPosition=bottom;verticalAlign=top;html=1;outlineConnect=0;" vertex="1" parent="1">
          <mxGeometry x="360" y="710" width="30" height="60" as="geometry" />
        </mxCell>
        <mxCell id="CAgy-6EI0tow3uJbMpaY-3" value="学生信息管理" style="ellipse;whiteSpace=wrap;html=1;" vertex="1" parent="1">
          <mxGeometry x="510" y="610" width="140" height="70" as="geometry" />
        </mxCell>
        <mxCell id="CAgy-6EI0tow3uJbMpaY-4" value="学院信息管理" style="ellipse;whiteSpace=wrap;html=1;" vertex="1" parent="1">
          <mxGeometry x="510" y="690" width="140" height="70" as="geometry" />
        </mxCell>
        <mxCell id="CAgy-6EI0tow3uJbMpaY-5" value="教师信息管理" style="ellipse;whiteSpace=wrap;html=1;" vertex="1" parent="1">
          <mxGeometry x="510" y="530" width="140" height="70" as="geometry" />
        </mxCell>
        <mxCell id="CAgy-6EI0tow3uJbMpaY-6" value="专业信息管理" style="ellipse;whiteSpace=wrap;html=1;" vertex="1" parent="1">
          <mxGeometry x="510" y="770" width="140" height="70" as="geometry" />
        </mxCell>
        <mxCell id="CAgy-6EI0tow3uJbMpaY-7" value="课程信息管理" style="ellipse;whiteSpace=wrap;html=1;" vertex="1" parent="1">
          <mxGeometry x="510" y="850" width="140" height="70" as="geometry" />
        </mxCell>
        <mxCell id="CAgy-6EI0tow3uJbMpaY-10" value="登录" style="ellipse;whiteSpace=wrap;html=1;" vertex="1" parent="1">
          <mxGeometry x="510" y="450" width="140" height="70" as="geometry" />
        </mxCell>
        <mxCell id="CAgy-6EI0tow3uJbMpaY-11" value="登出" style="ellipse;whiteSpace=wrap;html=1;" vertex="1" parent="1">
          <mxGeometry x="510" y="1010" width="140" height="70" as="geometry" />
        </mxCell>
        <mxCell id="CAgy-6EI0tow3uJbMpaY-12" value="修改密码" style="ellipse;whiteSpace=wrap;html=1;" vertex="1" parent="1">
          <mxGeometry x="510" y="930" width="140" height="70" as="geometry" />
        </mxCell>
        <mxCell id="CAgy-6EI0tow3uJbMpaY-18" value="" style="endArrow=none;html=1;rounded=0;entryX=0;entryY=0.5;entryDx=0;entryDy=0;" edge="1" parent="1" target="CAgy-6EI0tow3uJbMpaY-10">
          <mxGeometry width="50" height="50" relative="1" as="geometry">
            <mxPoint x="390" y="730" as="sourcePoint" />
            <mxPoint x="440" y="680" as="targetPoint" />
          </mxGeometry>
        </mxCell>
        <mxCell id="CAgy-6EI0tow3uJbMpaY-19" value="" style="endArrow=none;html=1;rounded=0;entryX=0;entryY=0.5;entryDx=0;entryDy=0;" edge="1" parent="1" target="CAgy-6EI0tow3uJbMpaY-5">
          <mxGeometry width="50" height="50" relative="1" as="geometry">
            <mxPoint x="390" y="730" as="sourcePoint" />
            <mxPoint x="440" y="680" as="targetPoint" />
          </mxGeometry>
        </mxCell>
        <mxCell id="CAgy-6EI0tow3uJbMpaY-20" value="" style="endArrow=none;html=1;rounded=0;entryX=0;entryY=0.5;entryDx=0;entryDy=0;" edge="1" parent="1" target="CAgy-6EI0tow3uJbMpaY-3">
          <mxGeometry width="50" height="50" relative="1" as="geometry">
            <mxPoint x="390" y="730" as="sourcePoint" />
            <mxPoint x="440" y="680" as="targetPoint" />
          </mxGeometry>
        </mxCell>
        <mxCell id="CAgy-6EI0tow3uJbMpaY-21" value="" style="endArrow=none;html=1;rounded=0;entryX=0;entryY=0.5;entryDx=0;entryDy=0;" edge="1" parent="1" target="CAgy-6EI0tow3uJbMpaY-4">
          <mxGeometry width="50" height="50" relative="1" as="geometry">
            <mxPoint x="390" y="730" as="sourcePoint" />
            <mxPoint x="440" y="680" as="targetPoint" />
          </mxGeometry>
        </mxCell>
        <mxCell id="CAgy-6EI0tow3uJbMpaY-23" value="" style="endArrow=none;html=1;rounded=0;entryX=0;entryY=0.5;entryDx=0;entryDy=0;" edge="1" parent="1" target="CAgy-6EI0tow3uJbMpaY-6">
          <mxGeometry width="50" height="50" relative="1" as="geometry">
            <mxPoint x="390" y="730" as="sourcePoint" />
            <mxPoint x="440" y="680" as="targetPoint" />
          </mxGeometry>
        </mxCell>
        <mxCell id="CAgy-6EI0tow3uJbMpaY-24" value="" style="endArrow=none;html=1;rounded=0;entryX=0;entryY=0.5;entryDx=0;entryDy=0;" edge="1" parent="1" target="CAgy-6EI0tow3uJbMpaY-7">
          <mxGeometry width="50" height="50" relative="1" as="geometry">
            <mxPoint x="390" y="730" as="sourcePoint" />
            <mxPoint x="440" y="680" as="targetPoint" />
          </mxGeometry>
        </mxCell>
        <mxCell id="CAgy-6EI0tow3uJbMpaY-25" value="" style="endArrow=none;html=1;rounded=0;entryX=0;entryY=0.5;entryDx=0;entryDy=0;" edge="1" parent="1" target="CAgy-6EI0tow3uJbMpaY-12">
          <mxGeometry width="50" height="50" relative="1" as="geometry">
            <mxPoint x="390" y="730" as="sourcePoint" />
            <mxPoint x="440" y="680" as="targetPoint" />
          </mxGeometry>
        </mxCell>
        <mxCell id="CAgy-6EI0tow3uJbMpaY-26" value="" style="endArrow=none;html=1;rounded=0;entryX=0;entryY=0.5;entryDx=0;entryDy=0;" edge="1" parent="1" target="CAgy-6EI0tow3uJbMpaY-11">
          <mxGeometry width="50" height="50" relative="1" as="geometry">
            <mxPoint x="390" y="730" as="sourcePoint" />
            <mxPoint x="440" y="680" as="targetPoint" />
          </mxGeometry>
        </mxCell>
        <mxCell id="CAgy-6EI0tow3uJbMpaY-27" value="教师" style="shape=umlActor;verticalLabelPosition=bottom;verticalAlign=top;html=1;" vertex="1" parent="1">
          <mxGeometry x="810" y="710" width="30" height="60" as="geometry" />
        </mxCell>
        <mxCell id="CAgy-6EI0tow3uJbMpaY-33" value="登录" style="ellipse;whiteSpace=wrap;html=1;" vertex="1" parent="1">
          <mxGeometry x="940" y="550" width="140" height="70" as="geometry" />
        </mxCell>
        <mxCell id="CAgy-6EI0tow3uJbMpaY-34" value="添加课程考勤" style="ellipse;whiteSpace=wrap;html=1;" vertex="1" parent="1">
          <mxGeometry x="940" y="630" width="140" height="70" as="geometry" />
        </mxCell>
        <mxCell id="CAgy-6EI0tow3uJbMpaY-35" value="修改密码" style="ellipse;whiteSpace=wrap;html=1;" vertex="1" parent="1">
          <mxGeometry x="940" y="790" width="140" height="70" as="geometry" />
        </mxCell>
        <mxCell id="CAgy-6EI0tow3uJbMpaY-36" value="登出" style="ellipse;whiteSpace=wrap;html=1;" vertex="1" parent="1">
          <mxGeometry x="940" y="870" width="140" height="70" as="geometry" />
        </mxCell>
        <mxCell id="CAgy-6EI0tow3uJbMpaY-37" value="课程考勤管理" style="ellipse;whiteSpace=wrap;html=1;" vertex="1" parent="1">
          <mxGeometry x="940" y="710" width="140" height="70" as="geometry" />
        </mxCell>
        <mxCell id="CAgy-6EI0tow3uJbMpaY-38" value="" style="endArrow=none;html=1;rounded=0;entryX=-0.002;entryY=0.562;entryDx=0;entryDy=0;entryPerimeter=0;" edge="1" parent="1" target="CAgy-6EI0tow3uJbMpaY-34">
          <mxGeometry width="50" height="50" relative="1" as="geometry">
            <mxPoint x="840" y="730" as="sourcePoint" />
            <mxPoint x="890" y="680" as="targetPoint" />
          </mxGeometry>
        </mxCell>
        <mxCell id="CAgy-6EI0tow3uJbMpaY-39" value="" style="endArrow=none;html=1;rounded=0;entryX=0;entryY=0.571;entryDx=0;entryDy=0;entryPerimeter=0;" edge="1" parent="1" target="CAgy-6EI0tow3uJbMpaY-33">
          <mxGeometry width="50" height="50" relative="1" as="geometry">
            <mxPoint x="840" y="730" as="sourcePoint" />
            <mxPoint x="890" y="680" as="targetPoint" />
          </mxGeometry>
        </mxCell>
        <mxCell id="CAgy-6EI0tow3uJbMpaY-40" value="" style="endArrow=none;html=1;rounded=0;entryX=0;entryY=0.429;entryDx=0;entryDy=0;entryPerimeter=0;" edge="1" parent="1" target="CAgy-6EI0tow3uJbMpaY-37">
          <mxGeometry width="50" height="50" relative="1" as="geometry">
            <mxPoint x="840" y="730" as="sourcePoint" />
            <mxPoint x="890" y="680" as="targetPoint" />
          </mxGeometry>
        </mxCell>
        <mxCell id="CAgy-6EI0tow3uJbMpaY-41" value="" style="endArrow=none;html=1;rounded=0;entryX=0;entryY=0.429;entryDx=0;entryDy=0;entryPerimeter=0;" edge="1" parent="1" target="CAgy-6EI0tow3uJbMpaY-35">
          <mxGeometry width="50" height="50" relative="1" as="geometry">
            <mxPoint x="840" y="730" as="sourcePoint" />
            <mxPoint x="890" y="680" as="targetPoint" />
          </mxGeometry>
        </mxCell>
        <mxCell id="CAgy-6EI0tow3uJbMpaY-42" value="" style="endArrow=none;html=1;rounded=0;entryX=0;entryY=0.429;entryDx=0;entryDy=0;entryPerimeter=0;" edge="1" parent="1" target="CAgy-6EI0tow3uJbMpaY-36">
          <mxGeometry width="50" height="50" relative="1" as="geometry">
            <mxPoint x="840" y="730" as="sourcePoint" />
            <mxPoint x="890" y="680" as="targetPoint" />
          </mxGeometry>
        </mxCell>
        <mxCell id="CAgy-6EI0tow3uJbMpaY-43" value="学生" style="shape=umlActor;verticalLabelPosition=bottom;verticalAlign=top;html=1;" vertex="1" parent="1">
          <mxGeometry x="1300" y="720" width="30" height="60" as="geometry" />
        </mxCell>
        <mxCell id="CAgy-6EI0tow3uJbMpaY-46" value="登出" style="ellipse;whiteSpace=wrap;html=1;" vertex="1" parent="1">
          <mxGeometry x="1400" y="830" width="140" height="70" as="geometry" />
        </mxCell>
        <mxCell id="CAgy-6EI0tow3uJbMpaY-47" value="修改密码" style="ellipse;whiteSpace=wrap;html=1;" vertex="1" parent="1">
          <mxGeometry x="1400" y="750" width="140" height="70" as="geometry" />
        </mxCell>
        <mxCell id="CAgy-6EI0tow3uJbMpaY-48" value="登录" style="ellipse;whiteSpace=wrap;html=1;" vertex="1" parent="1">
          <mxGeometry x="1400" y="590" width="140" height="70" as="geometry" />
        </mxCell>
        <mxCell id="CAgy-6EI0tow3uJbMpaY-49" value="查看考勤记录" style="ellipse;whiteSpace=wrap;html=1;" vertex="1" parent="1">
          <mxGeometry x="1400" y="670" width="140" height="70" as="geometry" />
        </mxCell>
        <mxCell id="CAgy-6EI0tow3uJbMpaY-50" value="" style="endArrow=none;html=1;rounded=0;entryX=0;entryY=0.5;entryDx=0;entryDy=0;" edge="1" parent="1" target="CAgy-6EI0tow3uJbMpaY-48">
          <mxGeometry width="50" height="50" relative="1" as="geometry">
            <mxPoint x="1330" y="740" as="sourcePoint" />
            <mxPoint x="1380" y="690" as="targetPoint" />
          </mxGeometry>
        </mxCell>
        <mxCell id="CAgy-6EI0tow3uJbMpaY-51" value="" style="endArrow=none;html=1;rounded=0;entryX=0;entryY=0.5;entryDx=0;entryDy=0;" edge="1" parent="1" target="CAgy-6EI0tow3uJbMpaY-49">
          <mxGeometry width="50" height="50" relative="1" as="geometry">
            <mxPoint x="1330" y="740" as="sourcePoint" />
            <mxPoint x="1380" y="690" as="targetPoint" />
          </mxGeometry>
        </mxCell>
        <mxCell id="CAgy-6EI0tow3uJbMpaY-52" value="" style="endArrow=none;html=1;rounded=0;entryX=0;entryY=0.5;entryDx=0;entryDy=0;" edge="1" parent="1" target="CAgy-6EI0tow3uJbMpaY-47">
          <mxGeometry width="50" height="50" relative="1" as="geometry">
            <mxPoint x="1330" y="740" as="sourcePoint" />
            <mxPoint x="1380" y="690" as="targetPoint" />
          </mxGeometry>
        </mxCell>
        <mxCell id="CAgy-6EI0tow3uJbMpaY-53" value="" style="endArrow=none;html=1;rounded=0;entryX=0;entryY=0.5;entryDx=0;entryDy=0;" edge="1" parent="1" target="CAgy-6EI0tow3uJbMpaY-46">
          <mxGeometry width="50" height="50" relative="1" as="geometry">
            <mxPoint x="1330" y="740" as="sourcePoint" />
            <mxPoint x="1380" y="690" as="targetPoint" />
          </mxGeometry>
        </mxCell>
      </root>
    </mxGraphModel>
  </diagram>
</mxfile>
